<?xml version="1.0" encoding="UTF-8" standalone="no"?>
<!-- Created with Inkscape (http://www.inkscape.org/) -->

<svg
   width="152.03351mm"
   height="40.262909mm"
   viewBox="0 0 152.03351 40.262909"
   version="1.1"
   id="svg5"
   xml:space="preserve"
   xmlns="http://www.w3.org/2000/svg"
   xmlns:svg="http://www.w3.org/2000/svg"><defs
     id="defs2" /><g
     id="layer1"
     transform="translate(-30.082486,-49.565657)"><g
       id="g1209"
       style="fill:#ffffff"><path
         id="rect1168"
         style="opacity:1;fill:#ffffff;stroke-width:0.99718;stroke-linecap:round"
         d="m 139.93032,58.894431 -0.9255,0.104782 c -0.50887,0.05758 -1.28645,0.212065 -1.72792,0.343169 l -0.80242,0.238388 0.0982,0.655566 c 0.14393,0.959811 -0.28662,3.910129 -1.18103,8.090381 -0.92384,4.317801 -1.08372,5.807598 -0.70192,6.545924 0.14252,0.275595 0.27518,0.502375 0.29448,0.503656 0.0194,0.0015 0.30836,0.09719 0.64232,0.213453 0.76436,0.266089 1.47032,0.120679 2.89571,-0.597136 1.28911,-0.649192 1.51626,-0.886233 1.27802,-1.331388 -0.20581,-0.384551 -0.45143,-0.402324 -1.20362,-0.08803 -0.30917,0.12918 -0.58091,0.234881 -0.60337,0.234881 -0.0225,0 -0.0757,-0.182481 -0.11841,-0.405492 -0.0955,-0.499554 0.25725,-2.557466 1.19349,-6.964661 0.81952,-3.857768 1.13315,-6.098238 0.97303,-6.951807 z m -60.533723,0.03544 c -0.08201,-0.0031 -0.16578,-0.0027 -0.250852,0.0012 -0.453719,0.02078 -0.948173,0.141699 -1.454477,0.377447 -1.495382,0.696289 -2.234955,2.176864 -2.369465,4.744383 l -0.08336,1.597431 -0.721784,0.04674 -0.721786,0.04674 -0.04752,0.743988 -0.04791,0.743598 h 0.729186 0.729186 l -0.105171,1.135458 c -0.194171,2.099476 -0.861913,6.444876 -1.25621,8.174519 -0.221172,0.97018 -0.332029,1.774507 -0.255137,1.8514 0.105679,0.105686 1.816912,0.483786 2.572017,0.568314 0.06942,0.0078 0.26174,-0.292193 0.427306,-0.666478 0.569337,-1.287081 0.991898,-3.794926 1.402281,-8.322922 0.284095,-3.134578 0.186673,-2.896879 1.186875,-2.896879 0.758888,0 0.874156,-0.0429 0.999124,-0.371605 0.344451,-0.905968 0.311489,-0.955699 -0.667252,-1.006526 l -0.909535,-0.04713 0.858897,-0.927843 c 0.982721,-1.061456 1.823208,-2.643131 1.935927,-3.643203 0.144545,-1.282382 -0.720118,-2.102477 -1.950339,-2.148606 z m 45.085273,0.01558 c -0.31905,0.007 -1.06716,0.130154 -1.66248,0.273834 l -1.08249,0.26137 -0.0565,1.722468 c -0.0638,1.945532 -0.5232,4.871908 -0.75645,4.818782 -0.0847,-0.0193 -0.43573,-0.139583 -0.78022,-0.267212 -0.91223,-0.337991 -2.31383,-0.309614 -3.04061,0.06115 -0.83174,0.424323 -1.82005,1.597351 -2.19885,2.609801 -0.7262,1.940943 -0.78418,4.416998 -0.13555,5.796873 0.81773,1.739652 2.79223,1.939213 4.73854,0.479112 0.27733,-0.208055 0.33107,-0.185986 0.6318,0.26137 0.62574,0.930841 1.83277,1.002306 3.30081,0.19476 0.4262,-0.234444 0.94382,-0.565867 1.15027,-0.736197 0.32481,-0.267995 0.35158,-0.361694 0.19905,-0.696466 -0.2072,-0.454757 -0.36822,-0.477621 -0.90097,-0.128543 -0.6957,0.455836 -0.76746,0.146328 -0.48379,-2.090177 0.13983,-1.102404 0.53185,-3.484289 0.87097,-5.292831 0.75316,-4.01665 1.01929,-6.040694 0.88695,-6.746138 -0.0934,-0.497817 -0.14074,-0.533847 -0.6805,-0.52196 z m -15.1423,0.06544 -0.93952,0.03583 c -0.51673,0.01976 -1.25663,0.128509 -1.64418,0.241504 l -0.70464,0.205278 -0.1044,1.876719 c -0.0912,1.641968 -0.23351,2.789485 -0.53559,4.316298 l -0.0814,0.412505 -0.77632,-0.294869 c -0.91974,-0.349477 -2.29517,-0.382974 -3.03555,-0.07362 -0.67411,0.28166 -1.710104,1.343963 -2.074983,2.127961 -0.236202,0.507513 -0.379433,0.62243 -0.888109,0.710878 -0.692143,0.120339 -0.874345,-0.04332 -0.879546,-0.789951 -0.0053,-0.769761 -0.315333,-1.658806 -0.719053,-2.062522 -0.36616,-0.366159 -0.431369,-0.375631 -1.983453,-0.280067 -0.882705,0.05433 -1.929656,0.200918 -2.326615,0.325641 -0.887423,0.278839 -1.889442,1.114885 -2.418545,2.017727 -0.334991,0.571621 -0.497361,0.695767 -1.027171,0.785277 -0.346124,0.05849 -0.664081,0.07173 -0.706593,0.02922 -0.04251,-0.04251 -0.136869,-0.498458 -0.209563,-1.012758 -0.151531,-1.072013 -0.498305,-1.834069 -0.942645,-2.071871 -0.40537,-0.216964 -3.136779,-0.04649 -4.100113,0.255917 -2.475668,0.777065 -4.064396,4.556984 -3.174608,7.553229 0.640019,2.15519 2.805168,3.020414 4.966801,1.985003 1.163821,-0.557463 2.665874,-2.811419 3.065931,-4.601036 0.180943,-0.809436 0.157806,-0.782174 0.761516,-0.902913 l 0.481061,-0.09621 -0.0818,1.316196 c -0.138461,2.219348 0.601959,3.893366 1.976824,4.467824 0.695867,0.290745 2.133928,0.27971 2.855589,-0.02178 1.353172,-0.565397 2.553734,-2.15899 3.208498,-4.259039 0.392753,-1.259687 0.559985,-1.458915 1.233616,-1.468111 0.09598,-0.0015 0.156588,0.739873 0.156588,1.915672 0,1.75535 0.03324,1.977531 0.391472,2.616812 0.526984,0.940426 1.258691,1.415928 2.176261,1.413969 0.76494,-0.0015 2.13041,-0.542731 2.50151,-0.991338 0.29698,-0.359021 0.43923,-0.325656 0.55352,0.129711 0.31868,1.269741 2.4081,1.166007 4.2785,-0.21229 0.61182,-0.450852 0.64894,-0.518252 0.4838,-0.88071 -0.2036,-0.446835 -0.35869,-0.47376 -0.91149,-0.157756 -0.2153,0.123075 -0.44451,0.226024 -0.5091,0.229039 -0.35952,0.01696 0.008,-2.920771 1.05677,-8.44991 0.40798,-2.15083 0.58626,-3.539106 0.60298,-4.697251 z m 34.75942,1.110918 c -1.17758,0.02551 -2.02629,0.85725 -2.02629,1.985396 0,1.33915 1.65902,1.990123 2.90818,1.1413 1.5498,-1.053116 0.9537,-3.166405 -0.88189,-3.126696 z m -64.714079,0.401597 c 0.06633,-0.01076 0.143539,-0.0078 0.238778,0.0031 0.313877,0.03604 0.448473,0.149207 0.484955,0.406272 0.08854,0.623911 -0.440281,1.873393 -1.087935,2.570458 l -0.627132,0.674653 0.09193,-1.159219 c 0.0505,-0.637634 0.229506,-1.470394 0.397703,-1.850621 0.201019,-0.454444 0.302703,-0.612435 0.501704,-0.644659 z m 97.160909,4.947325 -1.03379,0.105561 c -0.56862,0.05805 -1.32582,0.178727 -1.68274,0.268381 l -0.64894,0.163209 -0.0183,1.294773 c -0.01,0.712126 -0.19342,2.273348 -0.40743,3.469476 -0.45372,2.535721 -0.47875,3.194004 -0.14802,3.89094 0.59068,1.244786 2.52351,1.154205 4.50794,-0.211121 l 0.66375,-0.456521 -0.11063,1.157269 c -0.19071,1.996554 -0.58969,3.460974 -1.05833,3.885099 -0.26677,0.241418 -0.31413,0.204785 -0.84059,-0.647 C 175.46176,77.894152 175.03,77.318692 174.80935,77.112 l -0.40122,-0.375891 -0.59129,0.393808 c -0.81551,0.543161 -1.45253,1.211048 -1.45253,1.523034 0,0.478947 1.17084,1.417453 2.18289,1.749731 0.70361,0.231008 2.46193,0.02917 3.37131,-0.387183 v -3.92e-4 c 1.01036,-0.462552 1.64592,-1.263208 2.1081,-2.655764 0.39212,-1.181462 0.47519,-1.630808 1.24998,-6.763666 0.33818,-2.240401 0.6655,-4.274727 0.72724,-4.520797 l 0.11217,-0.447561 -1.5799,0.06349 c -0.86886,0.03491 -1.62532,0.109288 -1.68118,0.165158 -0.0859,0.08589 -0.28686,1.410761 -0.94069,6.203144 -0.0834,0.611413 -0.15684,0.707723 -0.74633,0.975365 -0.84666,0.384432 -1.31172,0.384888 -1.43344,0.0016 -0.0528,-0.166357 0.0177,-0.92407 0.15698,-1.683516 0.73758,-4.022381 0.8358,-4.71427 0.74866,-5.275302 z m -27.8267,0.03817 c -1.03792,0 -2.19106,0.293612 -2.19106,0.557796 0,0.114036 0.14483,0.453228 0.32213,0.753726 0.30498,0.516864 0.31998,0.745425 0.27422,4.231382 l -0.0483,3.684882 0.41055,0.412503 c 0.72317,0.726553 1.92553,0.753395 3.25953,0.07281 1.32025,-0.673541 2.87362,-2.629848 3.67242,-4.625192 0.50811,-1.269258 0.80711,-2.941242 0.66296,-3.708253 -0.23224,-1.235737 -1.78449,-1.845595 -2.41504,-0.948877 -0.4828,0.686632 -0.79449,1.365179 -0.9551,2.080051 -0.14745,0.656202 -0.13939,0.67467 0.62206,1.479795 0.42415,0.448471 0.77046,0.914492 0.7697,1.035351 -0.006,0.840914 -2.05666,3.179895 -2.70718,3.087354 -0.50512,-0.07183 -0.51416,-0.896742 -0.039,-3.469866 0.44532,-2.411145 0.4673,-2.74663 0.2341,-3.586333 -0.20339,-0.732377 -0.77858,-1.057163 -1.87204,-1.057163 z m 23.05038,0.01831 c -0.65755,-0.0049 -1.47711,0.36534 -2.05045,0.979649 -0.43588,0.467027 -0.64203,0.407907 -0.64505,-0.185023 -0.005,-0.83105 -0.0962,-0.85996 -2.11939,-0.675043 -1.0169,0.09294 -1.9154,0.235385 -1.99669,0.316682 -0.0927,0.09271 -0.0199,0.327684 0.19554,0.630247 0.65284,0.917195 0.65317,1.198956 -0.004,4.509501 -0.33757,1.702971 -0.61397,3.39561 -0.61428,3.761619 l -7.5e-4,0.66569 1.13545,-0.0015 c 0.62438,-4.68e-4 1.39952,-0.07432 1.72248,-0.163991 l 3.8e-4,7.54e-4 0.58702,-0.163207 0.003,-0.971469 c 0.002,-0.534213 0.21168,-2.028089 0.46626,-3.319901 0.39773,-2.018205 0.51961,-2.398219 0.86669,-2.700948 0.22216,-0.193772 0.46938,-0.352518 0.54962,-0.352518 0.0802,0 0.32292,0.280416 0.5391,0.622847 0.36019,0.570589 0.42729,0.60953 0.80514,0.465868 0.49661,-0.188811 1.31695,-0.751168 1.5799,-1.082872 0.38877,-0.490415 0.11027,-1.911197 -0.43159,-2.201191 -0.16788,-0.08985 -0.36914,-0.133455 -0.58818,-0.135164 z m -10.52256,0.0023 c -0.17589,-0.0032 -0.37957,0.0022 -0.62635,0.01324 -2.11044,0.09476 -3.93037,1.310098 -4.82735,3.223688 -0.37712,0.804582 -0.41835,1.068506 -0.41835,2.692768 0,1.553589 0.0472,1.888746 0.34317,2.441916 0.46635,0.871516 1.32636,1.593037 2.04149,1.712729 0.32479,0.05435 0.65565,0.114852 0.73541,0.13439 0.4457,0.109146 1.98507,-0.261099 2.81353,-0.676604 0.52593,-0.263774 1.19102,-0.676325 1.47784,-0.916936 l 0.52118,-0.437434 -0.3159,-0.385238 c -0.27077,-0.330121 -0.35623,-0.3568 -0.59947,-0.186191 -1.62565,1.140206 -3.05841,1.054452 -3.58867,-0.214627 -0.33752,-0.807785 -0.28325,-0.952061 0.40082,-1.061449 2.05903,-0.329254 3.98681,-1.551186 4.47872,-2.839228 0.51615,-1.351526 0.0786,-2.517491 -1.19271,-3.178893 -0.43844,-0.228099 -0.71566,-0.312721 -1.24336,-0.322135 z m -29.78366,0.0078 c -0.18746,-0.0026 -0.40775,0.0032 -0.67855,0.0148 -1.58375,0.06774 -2.48711,0.477454 -3.68683,1.67183 -1.20199,1.19663 -1.59794,2.236798 -1.61301,4.235278 -0.0117,1.54391 0.29171,2.591856 0.96679,3.337817 0.96461,1.065881 3.17072,1.227263 4.94032,0.361473 0.45555,-0.222879 1.09876,-0.639185 1.42954,-0.925112 l 0.60143,-0.520012 -0.28008,-0.427307 c -0.2505,-0.382327 -0.30704,-0.403146 -0.53559,-0.196319 -0.42672,0.386179 -1.62826,0.867744 -2.17392,0.871362 -0.67148,0.0045 -1.22139,-0.368327 -1.4311,-0.969911 -0.30091,-0.863158 -0.23041,-1.02468 0.49742,-1.143249 0.91399,-0.148891 2.8577,-0.969355 3.42312,-1.445127 1.03716,-0.872716 1.42713,-2.623817 0.81721,-3.668133 -0.16017,-0.274257 -0.60733,-0.664541 -0.99366,-0.867467 -0.45322,-0.238054 -0.72071,-0.322214 -1.28309,-0.329925 z m 13.00459,0.01675 c -0.26857,-0.0149 -0.71885,0.02088 -1.53822,0.09738 -0.98131,0.09162 -1.8504,0.23309 -1.93125,0.313955 -0.0916,0.09163 0.008,0.457887 0.26448,0.972247 0.22617,0.453872 0.41095,1.042545 0.41095,1.308407 0,0.265862 -0.25285,1.5026 -0.56208,2.74847 -0.67913,2.736368 -0.6795,3.744138 -0.002,4.32759 0.51508,0.443044 1.62131,0.493638 2.54085,0.116081 h 4e-4 c 0.87973,-0.361206 2.09368,-1.162372 2.09368,-1.381636 0,-0.103734 -0.0991,-0.324139 -0.22008,-0.489629 -0.21187,-0.289734 -0.24085,-0.290919 -0.78801,-0.02999 -0.31252,0.149035 -0.60144,0.271107 -0.64154,0.271107 -0.22575,0 -0.002,-1.77743 0.47522,-3.758112 0.57089,-2.374867 0.68729,-3.820823 0.34551,-4.288252 -0.093,-0.127115 -0.17976,-0.192714 -0.44834,-0.207616 z m -50.173206,1.05171 c 0.0747,-0.0066 0.09394,0.07013 0.01869,0.252022 -0.215616,0.521172 -0.273167,1.691729 -0.104782,2.127182 0.210084,0.543295 0.784028,0.914408 1.578346,1.020938 0.586721,0.0787 0.623558,0.113109 0.533256,0.495083 -0.182685,0.772765 -0.862926,2.057678 -1.378129,2.603957 -0.621862,0.659361 -1.418848,0.750669 -1.902038,0.217353 -0.241493,-0.266548 -0.308519,-0.624905 -0.352132,-1.881003 -0.0597,-1.719795 0.277561,-3.215397 0.94927,-4.206842 0.253855,-0.37469 0.53294,-0.617624 0.657515,-0.62869 z m -9.376976,0.01324 c 0.07291,0.01014 0.06893,0.103714 -3.89e-4,0.317461 -0.577818,1.78147 0.155974,3.113453 1.715456,3.113453 0.356151,0 0.388231,0.04648 0.297206,0.430422 -0.187832,0.792251 -0.862439,2.072858 -1.382804,2.624602 -0.621861,0.659361 -1.419238,0.750669 -1.902428,0.217353 -0.46623,-0.514583 -0.513238,-3.078782 -0.08258,-4.496646 0.339061,-1.116281 0.885103,-2.068105 1.256599,-2.190285 0.04189,-0.01379 0.07464,-0.01975 0.09894,-0.01636 z m 45.383252,0.142566 c 0.54886,0 0.7253,0.306752 0.7253,1.260884 0,0.661253 -0.09,1.018835 -0.35603,1.413577 -0.40543,0.601614 -1.27722,1.240239 -1.69286,1.240239 -0.23405,0 -0.26646,-0.09649 -0.19749,-0.587011 0.28772,-2.045416 0.8737,-3.327689 1.52108,-3.327689 z m 29.94999,0 c 1.07991,0 0.80372,2.578583 -0.36537,3.411047 -0.25212,0.179525 -0.65877,0.376346 -0.9037,0.437824 l -0.4456,0.111793 0.0997,-0.847601 c 0.21285,-1.810956 0.88838,-3.113063 1.61496,-3.113063 z m -56.26262,0.135553 c 0.23402,-0.0037 0.48986,0.06014 0.77165,0.188529 l 0.36771,0.167495 -0.44133,2.533843 c -0.24273,1.393458 -0.47717,2.754706 -0.52079,3.025031 -0.0569,0.352591 -0.19982,0.537486 -0.506,0.654788 -0.91252,0.349585 -1.07386,0.351239 -1.37929,0.01363 -0.46302,-0.511818 -0.42086,-3.110483 0.0752,-4.641549 0.42483,-1.311261 0.93083,-1.930659 1.63287,-1.941769 z m 15.48547,0.03427 c 0.10394,-3.31e-4 0.2299,0.01135 0.39185,0.0296 0.38314,0.0432 0.75801,0.139449 0.83281,0.214238 0.0769,0.07693 -0.0854,1.421789 -0.37356,3.096313 -0.54439,3.163627 -0.56733,3.215257 -1.54874,3.44221 -0.31788,0.07349 -0.51461,0.01278 -0.76268,-0.235271 -0.31307,-0.313064 -0.32922,-0.449129 -0.25592,-2.155228 0.0847,-1.970416 0.36022,-3.027499 1.01977,-3.913921 0.27341,-0.367453 0.38464,-0.476965 0.69647,-0.477945 z" /><path
         id="rect1163"
         style="opacity:1;fill:#ffffff;stroke-width:0.959265;stroke-linecap:round"
         d="m 48.711037,49.567911 c -2.003586,0.01587 -4.003597,0.11538 -5.064177,0.291748 -5.180192,0.861433 -10.72582,2.873695 -12.269959,4.451852 -2.166235,2.213949 -1.520833,6.085405 1.244138,7.463255 0.78828,0.392813 0.840275,0.462461 2.025513,2.71146 l 1.216483,2.308706 0.0031,6.046161 c 0.0015,3.382174 0.07226,6.417694 0.160486,6.889484 0.213611,1.14253 0.83542,1.98519 1.859577,2.52021 1.717048,0.897 3.686201,0.36475 4.661808,-1.25972 l 0.493525,-0.82189 1.267889,2.35544 c 0.697328,1.29553 1.836376,3.41155 2.53112,4.70232 0.891833,1.65693 1.330264,2.38504 1.760253,2.60162 h 0.670367 c 0.08252,-0.029 0.168529,-0.0633 0.262923,-0.10634 0.275949,-0.12574 2.231798,-3.64654 7.693848,-13.850252 l 7.323806,-13.681969 0.707762,-0.342393 c 1.620316,-0.784375 2.628365,-2.432882 2.624596,-4.291368 -0.0023,-1.298116 -0.360876,-2.207119 -1.26789,-3.217068 -1.42934,-1.591552 -7.59946,-3.786355 -12.818403,-4.559747 -1.075972,-0.159423 -3.083191,-0.227413 -5.086777,-0.211509 z m 0.150747,2.496448 c 2.192233,-0.01318 4.366541,0.08634 5.562377,0.304606 2.552784,0.465937 5.016292,1.152917 7.112682,1.983061 3.176395,1.257789 3.734616,1.689648 3.882762,3.003992 0.08862,0.786238 -0.154568,1.383678 -0.81488,2.000979 -0.354778,0.331682 -0.566475,0.390929 -1.385146,0.386406 -0.7753,-0.0045 -1.213611,-0.119337 -2.21872,-0.581942 -1.091432,-0.502351 -1.258166,-0.632437 -1.295553,-1.012376 -0.08762,-0.889896 -0.207665,-1.140653 -0.65634,-1.372672 -0.653972,-0.33818 -0.907797,-0.299345 -1.426822,0.219687 -0.445329,0.445321 -0.45769,0.500444 -0.45769,2.035644 0,1.781571 -0.210197,2.204308 -1.096113,2.204308 -0.260978,0 -0.608957,-0.139199 -0.782943,-0.313177 -0.288529,-0.288536 -0.313177,-0.522002 -0.313177,-2.967766 0,-2.881474 -0.09549,-3.32384 -0.779046,-3.60698 -0.988248,-0.409343 -1.726364,0.290218 -1.726364,1.636771 v 0.714771 l -2.152885,-0.09932 c -4.578471,-0.211056 -9.238732,0.683694 -13.44787,2.581752 -2.095644,0.945004 -3.17494,0.83781 -3.987936,-0.395361 -0.460637,-0.698678 -0.40482,-1.93987 0.115297,-2.557993 1.003241,-1.192286 5.839991,-2.99059 10.198481,-3.792 1.267588,-0.233082 3.477654,-0.359195 5.669886,-0.372386 z m -1.047034,6.979461 1.269058,7.54e-4 c 0.698083,6.48e-4 1.735921,0.04553 2.306368,0.09932 l 1.037296,0.09777 0.07713,0.962506 c 0.128096,1.595773 0.799458,2.596157 2.154446,3.210451 0.897071,0.40669 1.921508,0.40669 2.818587,0 0.877586,-0.397864 1.351927,-0.833574 1.747394,-1.604834 0.226275,-0.44128 0.377941,-0.574999 0.572211,-0.504823 0.844887,0.305134 1.903281,0.807749 1.905543,0.904858 0.0053,0.220599 -6.30185,11.877808 -6.397903,11.825119 -1.134314,-0.622457 -1.753832,-0.802805 -2.75977,-0.802805 -3.888627,0 -6.120349,4.398124 -3.833677,7.554791 0.404527,0.55844 1.53529,1.44778 2.066029,1.62469 0.129144,0.043 -1.421787,3.13685 -1.724027,3.43909 -0.06385,0.0639 -1.418064,-2.32486 -3.00945,-5.3084 -1.591399,-2.983558 -3.058488,-5.624089 -3.259911,-5.867376 -0.470067,-0.567786 -1.2291,-0.602957 -1.720522,-0.07985 -0.316245,0.33659 -0.340441,0.518882 -0.340441,2.562282 0,1.988694 -0.03115,2.239994 -0.324476,2.612914 -0.235373,0.29924 -0.468937,0.41251 -0.849938,0.41251 -0.380994,0 -0.614166,-0.11327 -0.849546,-0.41251 -0.31657,-0.40247 -0.324861,-0.57329 -0.324861,-6.970507 v -6.557603 l -0.447952,-0.819945 c -0.246543,-0.450831 -0.73847,-1.35991 -1.092999,-2.020064 l -0.644663,-1.200118 1.032237,-0.483009 c 1.178116,-0.551301 1.309965,-0.575694 1.309965,-0.241893 0,0.41814 0.606636,1.451124 1.201287,2.045774 1.36545,1.365443 3.509841,1.767822 5.218822,0.979256 1.238024,-0.571261 1.800677,-1.111452 2.376084,-2.280266 0.427999,-0.869415 0.505713,-1.197954 0.497422,-2.104199 z m -3.040225,0.35875 c 0.08173,-0.0045 0.153943,-0.0045 0.216965,0.0015 0.420137,0.03633 0.446564,0.307501 0.368873,0.957448 -0.178237,1.491097 -1.857089,2.511885 -3.149672,1.91489 -0.621975,-0.28727 -1.149585,-0.876735 -1.321649,-1.476677 -0.138543,-0.483085 -0.132912,-0.488972 0.669583,-0.728407 0.444877,-0.13274 1.429695,-0.362158 2.188728,-0.509882 0.448539,-0.08733 0.781978,-0.144634 1.027172,-0.158541 z m 9.040038,6.674077 c -0.783214,-0.04854 -1.600039,0.74839 -1.188826,1.741168 0.347624,0.839235 1.22154,0.987449 1.888794,0.320188 0.516032,-0.516025 0.557821,-0.773936 0.228649,-1.410458 -0.223591,-0.432387 -0.57261,-0.628812 -0.928617,-0.650898 z m -4.770871,1.232448 c -0.648689,-0.01847 -1.274131,0.553125 -1.274131,1.164283 0,0.517872 -0.614135,1.218043 -1.068072,1.218043 -0.515919,0 -1.075354,-0.580487 -1.257766,-1.304907 -0.231009,-0.917431 -0.51827,-1.124545 -1.47161,-1.061831 -0.861486,0.05668 -1.168196,1.400221 -0.594025,2.601613 0.419029,0.876773 0.760917,1.250711 1.572895,1.720136 0.612604,0.353859 0.851565,0.401195 1.829969,0.359135 0.954576,-0.04108 1.227148,-0.120377 1.796871,-0.520789 1.896717,-1.333059 2.208416,-4.126161 0.465869,-4.175683 z m 3.637748,8.381746 c 0.412005,0.02103 0.81935,0.133312 1.122992,0.332262 l 0.402379,0.263707 -1.010032,1.908656 c -0.555522,1.049841 -1.105587,1.926931 -1.222324,1.949171 -0.116737,0.0222 -0.413655,-0.0931 -0.659852,-0.25669 -1.484418,-0.98618 -1.366611,-3.159992 0.215798,-3.980533 0.322184,-0.167051 0.739043,-0.237528 1.151039,-0.216573 z" /></g></g></svg>
